<?xml version="1.0" encoding="utf-8"?>
<!-- Generator: Adobe Illustrator 29.8.4, SVG Export Plug-In . SVG Version: 9.03 Build 0)  -->
<svg version="1.0" id="Layer_1" xmlns="http://www.w3.org/2000/svg" xmlns:xlink="http://www.w3.org/1999/xlink" x="0px" y="0px"
	 viewBox="0 0 2000 2000" style="enable-background:new 0 0 2000 2000;" xml:space="preserve">
<style type="text/css">
	.st0{fill:#070707;}
</style>
<path class="st0" d="M1062.93,1038.38l-5.79,15.22c-1.25,5.5-34.12,39.45-37.91,35.21c-1.03-6.93,3.37-14.57,3.34-21.02
	c-0.05-11.72-10.69-25.87-6.7-39.51c-8.7-0.58-23.62,1.32-27.32,10.52c-2.78,6.9-1.29,23.34-11.05,5.16
	c-7.17-13.37-7.91-29.22,1.39-41.72l11.75-10.92c-27.56-1.8-50.37-7.56-72.81-23.87c-3.13-2.27-24.55-17.03-12.11-18.24
	c7.71,2,15.73,2.21,23.64,1.81c19.13-0.98,31.48-4.37,51.97-3.35c2.74,0.14,11.5,1.24,12.68-1.74
	c-41.14-17.88-86.46-18.06-130-25.52c-99.5-17.05-196.17-72.74-246.87-161.67c-8.57-15.04-23.07-45.87-24.86-62.6
	c-0.36-3.37,1.92-3.31,4.06-2.35c1.37,0.61,15.38,20.05,18.54,23.49c38.32,41.7,99.56,75.87,152.99,94.15
	c3.58,1.22,9.01,4.2,12.63,2.51c-49.23-29.82-94.32-65.3-127.46-112.96c-39.17-56.33-47.36-106.31-35.08-174.01
	c3.69-20.35,11.77-39.84,12.92-60.23l6.71,0.02c-20.39,147.12,91.54,277.95,220.24,331.19c0.77-3.51-1.82-3.81-3.82-5.41
	c-7.86-6.26-17.97-11.38-26.25-17.47c-136.11-100.18-174.4-248.87-70.49-391.24c32.58-44.63,79.28-87.9,130.82-108.74
	c1.25,1.19-6.2,10.21-7.53,11.78c-9.87,11.64-23.32,22.08-33.67,33.58c-64.39,71.48-96.7,165.87-81.5,262.29l12.18-45.8
	c12.87-31.4,31.32-61.63,51.65-87.81c5.56-7.16,23.25-30.64,29.38-34.58c2.06-1.33,3.33-2.09,5.95-1.6
	c-9.62,31.81-23.57,62.16-32.77,94.14c-16.14,56.09-21.64,107.82-5.04,164.75c3.33,11.42,9.37,22.06,10.92,33.62
	c-2.43,2.73-18.14-15.4-20.12-17.69c-11.6-13.42-20.8-28.77-30.3-43.68c-3.18-2.33-1.32,3.1-0.88,4.25
	c10.05,26.08,45.27,64.9,67.33,82.3c2.01,1.58,14.57,11.53,15.92,10.13c-15.94-32.61-29.51-79.84-18.95-115.66
	c0.44-1.5,0.02-5.24,2.96-3.68c1.92,1.02,11.83,34.71,14.55,40.93c11.11,25.4,28.5,50.08,49.4,68.28
	c14.55,12.67,38.9,23.94,50.41,37.02c12.03,13.67,19.71,38.12,31.4,54.35c5.18,7.19,24.77,25.32,26.33,29.15
	c0.86,2.1,1.08,4.74-2.17,3.88l-64.81-17.6c7.17,5.67,13.76,12.18,21.32,17.35c39.97,27.36,86.58,27.71,124.97,63.33
	c48.29,44.81,54.26,138.24,25.11,194.64c-1.02,1.97-3.88,0.34-3.27,2.92c5.71-0.71,9.88-8.44,13.13-12.9
	c34.72-47.58,41.83-110.97,15.24-164.25c-2.37-4.75-14.43-21.53-14.65-24.01c-0.15-1.68,4.85-8.52,6.04-11.9
	c15.04-42.74-9.15-75.67-47.21-93.2c-3.01-1.39-10.81-2.68-11.23-3.08c-4.35-4.12,14.02-5.34,13.44-8.37
	c-21.97,2.9-42.53,3.07-53.64,24.49c-0.66,1.27-0.55,5.28-3.49,2.39c-3.11-3.06-3.89-21.22-3.45-26.13
	c1.11-12.47,10.22-26.79,20.71-33.23c9.38-5.76,12.15,0.86,21.37,2.19c-2.39-12.09-13.74-9.89-8.78-24.77
	c7.63-22.91,60.04-53.04,81.94-62.61l-14.3,17.63c-0.37,1.18,1.31,1.06,2.52,0.85c7.67-1.34,21.49-8.65,30.73-11.31
	c64.43-18.56,116.24-17.94,154.71-84.03c1.95-3.35,9.82-22.27,11.25-22.34c3.09-0.14,1.86,5.1,1.74,6.72
	c-2.28,32.29-22.2,67.28-46.27,88.26c-18.05,15.73-38.71,24.48-60.54,33.61c31.02,6.32,65.28,2.83,93.32-12.58
	c-0.45,3.54-5.17,6.86-7.76,9.04c-14.22,12.03-34.56,21.84-52.57,26.45c-4.97,1.27-21.97,2.47-22.91,3.15
	c-3.44,2.53,1.25,2.93,2.39,3.51c8.42,4.26,41.72,20.02,48.88,20.02h24.38c-23.39,21.15-58.74,14.01-87.42,10.1l30.28,20.97
	c17.37,16.82,32.9,39.35,30.22,64.75c-6.89-5.95-10.06-14.48-16.75-21.06c-6.56-6.44-18.17-14.89-26.93-17.6
	c-0.63,2.57,2.36,1.26,3.37,2.83c19.13,29.7,31.55,75.41,30.24,110.65c-0.08,2.03,1.26,6.26-1.66,5.86
	c-12-30.28-26.81-63.48-49.59-87.44c-1.36-1.43-7.53-8.5-9.26-6.69c9.17,18.76,19.32,37.03,26.47,56.74
	c31.72,87.46,20.22,176.31-29.14,254.14c-34.82,54.91-74.71,92.75-53.67,164.92c1.63,5.59,14.71,31.44,12.61,33.6
	c-19.96-4.47-32.21-27.04-40.63-44.25l-8.1-24.66l-1.72,64.7c-2.73,23.44-7.95,45.09-20.49,65.25c-2.46,3.95-4.12,9.08-9.74,7.89
	c7.67-27.55,5.7-55.08-0.53-82.68l-12.9-55.16c-6.33,71.15-23.21,146.77-87.57,187.32c-5.92,3.73-20.61,13.67-12.52,0.93
	c30.82-48.57,45.22-77.95,42.92-138.67c-0.08-2.03,1.27-6.25-1.66-5.86c-7.98,25.46-20.22,50.5-32.77,74
	c-28.95,54.25-71.48,104.27-81.59,166.4c-2.31,0.45-4.05-0.57-4.73-2.82c-1.34-4.4-3.39-21.22-3.73-26.53
	c-0.39-5.98-0.39-14.26,0.09-20.21c0.89-11.07,5.86-21.86,5.84-32.83c-8.6,5.68-15.46,13.81-23.57,20.15
	c-64.39,50.34-147.72,74.38-229.43,66.46c12.01-5.31,25.34-7.07,37.85-10.91c95.88-29.41,175.41-92.84,232.8-174.07l-2.48-2.48
	c-33.83,30.75-70.81,58.46-110.69,80.98c-95.26,53.77-238.28,105.46-346.67,70.37c-2.21-0.71-5.24-0.03-5.84-3.39
	c30.85-1.53,61.35-5.8,91.15-13.94l18.12-6.23c-26.3-3.3-52.21-9.48-78.45-13.19c-103.95-14.68-208.18-11.26-289.76,62.74
	c-15.58,14.13-24.59,29.72-37.97,44.41c-1.7,1.87-2.48,4.22-5.71,3.52c19.02-85.88,94.62-146.62,178.18-165.61
	c54.46-12.38,109.92-7.17,164.78-0.84c-4.5-4.69-12.28-8.31-18.14-11.27c-61.37-31.02-133.35-43.61-198.72-16.43
	c-4.56,1.89-28.49,15.9-30.28,14.25c14.32-30.19,44.32-53.3,75.2-65.17c59.07-22.69,120.1-10.85,176.43,12.76
	c88.66,37.17,134.79,70.64,237.96,40.17c2.28-0.67,25.85-7.66,23.17-9.59c-34.1,3.88-67.06,5.25-101.18-0.55
	c-92.54-15.73-154.5-78.36-238.44-101.17c-8.86-2.41-20.07-0.81-25.2-7.56c11.18-1.48,23.18-4.43,34.39-5.13
	c100.45-6.27,184.28,55.39,282.53,65.63c106.53,11.09,220.45-35.89,298.43-106.72c10.14-9.21,35.25-33.61,41.13-44.62
	c1.13-2.12,2.54-5.63-1.62-4.99c-65.18,70.2-159.39,116.53-257.27,104.21c-2.29-0.29-5.37-1.19-2.52-3.34
	c79-12.78,153.67-56.72,198.36-123.6c-14.86,2.54-32.61,4.11-47.7,2.36c-2.99-0.35-20.2-5.43-21.02-6.73
	c-0.39-0.63-0.36-4.62-0.18-4.83c0.64-0.77,16.03-3.91,19.37-5.03c40.52-13.59,77.22-25.94,100.7-64.06
	c4.58-7.43,14.43-26.11,14.43-34.32V1038.38z M1155.4,732.42c-7.3-3.56-57.27,20.87-48.75,28.56c9.63-0.41,15.15,3.42,24.12-1.93
	c7.95-4.75,7.67-11.29,12.13-16.44C1146.17,738.83,1153.18,737.62,1155.4,732.42z M1224.32,838.33c-2.36-1.21-4.49,1.06-3.35,1.65
	C1223.33,841.19,1225.46,838.92,1224.32,838.33z M1226.01,994.67v31.1c0,5.97-5.38,24.39-7.2,31.47c-2.08,8.09-5.4,16.05-7.89,24.04
	c5.34-1.93,9.3-11.86,11.49-17.07c9.15-21.75,10.33-41.76,6.54-64.92C1228.7,997.75,1228.24,994.24,1226.01,994.67z M505.6,1441.88
	v1.68C506.69,1443,506.69,1442.44,505.6,1441.88z M912.46,1480.55v1.68C913.55,1481.67,913.55,1481.11,912.46,1480.55z"/>
<path class="st0" d="M1308.39,953.48c0.59-4.96,7.39-24.85,11.75-26.92c3.4-1.61,14.74-1.91,20.21-3.33
	c24.71-6.4,41.97-20.35,60.5-37.01c-1.15-2.31-4.52,0.02-6.19,0.54c-18.19,5.64-35.99,17.14-56,17.12
	c-0.06-1.31-0.16-2.63,0.27-3.91c0.58-1.72,18.21-26.12,20.88-29.56c19.96-25.65,36.81-31.65,61.75-49.21
	c50.3-35.41,85.39-92.55,105.42-150.13c8.26-23.74,16.25-49.51,15.11-74.86c6.29-2.32,6.69,7.36,7.91,13.11
	c9.52,45.15,6.57,94.54-7.9,138.2c3.5,0.78,3.82-1.84,5.41-3.82c24.81-31.02,25.64-59.57,34.01-95.45
	c15.6-66.83,31.45-114.04,18.93-185.2c-4.71-26.77-15.44-51.67-24.72-76.98c6.14-5.87,23.23,21.13,25.91,25.35
	c40.49,63.91,61.77,157.56,47.56,232.21c-13.57,71.32-63.92,127.75-113.79,177.04c7.01-1.22,13.82-6.43,20-10.25
	c78.85-48.73,106.82-88.47,137.1-175.61c2.12-6.11,10.77-42.61,12.75-15.99c1.93,25.94-2.79,69.9-8.97,95.43
	c-17.36,71.75-57.42,117.07-119.03,155.01c-25.63,15.78-56.02,30.89-85.59,36.31c-0.34,2.68,3.54,2.45,5.22,2.41
	c13.14-0.34,32.26-5.09,45.53-7.99c49.14-10.73,90.24-24.82,129.16-57.46c3.18-2.66,10.11-11.53,12.61-12.62
	c5.38-2.34-0.46,9.2-1.11,10.67c-18.01,40.65-61.12,87.82-101.17,107.3c-38.47,18.72-89.69,28.85-132.26,28.3l31.52,14.69
	c12.77,4.42,26.04,8.19,39.72,6.94c4.09-0.38,17.71-5.02,18.65-4.83c1.03,0.21,2.88,2.68,2.56,4.18
	c-0.79,3.58-22.48,19.07-27.03,21.75c-33.04,19.51-69.25,21.28-105.78,11.08c16.6,34.78-5.95,74.16-42.02,82.36
	c4.33-16.19,6.59-26.35,1.73-42.94c-2.4-8.18-3.62,1.74-4.74,3.74c-7.15,12.79-21.48,32.46-37.34,32.49l-0.84-21.86
	c-18.64,30.33-47.34,56.64-83.22,63.87c-0.66-2.62,0.69-3.95,1.59-5.96c7.02-15.65,21.73-32.26,29.86-49.16
	c21.98-45.7,19.73-87.66,10.58-136.53c14.11,2.59,19.77,21.37,23.55,33.6c4.44-0.32-0.02-6.59-0.02-7.55
	C1308.39,973.26,1307.4,961.82,1308.39,953.48z"/>
<path class="st0" d="M1069.41,493.9c0.99,0.6,3.37,14.85,4.52,18.18c3.64,10.55,10.16,21.17,19.36,27.71
	c4.55,3.23,18.45,6.44,16.74,11.87c-0.28,0.89-13.23,6.54-16.39,8.86c-8.36,6.14-14.46,15.97-18.07,25.64
	c-2.01,5.37-4.92,25.94-5.93,26.87c-5.99,5.56-6.81-12.66-7.89-16.48c-3.1-10.97-8.74-25.39-17.28-33.16
	c-7.55-6.87-19.13-6.89-21.89-15.92c24.93-4.25,40.19-29.94,40.35-53.83C1064.88,493.95,1067.95,493.01,1069.41,493.9z"/>
<path class="st0" d="M1313.4,1223.32c0.76,0.61,2.42,15.71,3.49,19.24c2.2,7.32,6.41,14.73,12.53,19.42
	c4.6,3.52,18.65,6.65,9.84,13.23c-11.63,8.68-16.46,9.4-22,25.07c-1.34,3.79-3.13,18.22-3.83,18.88c-5.21,4.88-6.34-9.45-7.57-13.45
	c-2.75-8.93-6.3-18.77-13.69-24.97c-6.81-5.71-17.28-4.21-15.76-12.85c0.2-1.13,5.68-1.21,7.97-2.17
	c17.65-7.41,22.42-24.69,24.03-42.41C1309.78,1223.54,1312.93,1222.95,1313.4,1223.32z"/>
<path class="st0" d="M730.02,1231.73c1.22,1.12,4.52,14.56,7.66,18.42c3.78,4.66,9.24,4.71,12.48,7.7c5.21,4.81-2.14,4.45-5.38,7.47
	c-1.73,1.61-8.36,7.9-9.19,8.92c-4.75,5.84-1.71,20.13-10.57,18.03c0.39-6.47-1.8-13.66-5.32-19.07c-3.06-4.7-15.46-11.4-14.85-13.7
	c0.29-1.11,10.36-5.58,12.85-8.18c4.8-4.99,5.72-12.16,8.61-17.44C727.13,1232.34,727.48,1229.41,730.02,1231.73z"/>
</svg>
