<?xml version="1.0" encoding="utf-8"?>
<!-- Generator: Adobe Illustrator 29.8.4, SVG Export Plug-In . SVG Version: 9.03 Build 0)  -->
<svg version="1.0" id="Layer_1" xmlns="http://www.w3.org/2000/svg" xmlns:xlink="http://www.w3.org/1999/xlink" x="0px" y="0px"
	 viewBox="0 560 2000 980" style="enable-background:new 0 0 2000 2000;" xml:space="preserve">
<style type="text/css">
	.st0{fill:#070707;}
</style>
<path class="st0" d="M1416.57,1102.67l-4.96,13.03c-1.07,4.71-29.2,33.77-32.44,30.13c-0.88-5.93,2.88-12.47,2.86-17.99
	c-0.05-10.03-9.15-22.14-5.74-33.81c-7.44-0.5-20.21,1.13-23.39,9c-2.38,5.9-1.11,19.98-9.46,4.41c-6.14-11.44-6.77-25,1.19-35.71
	l10.06-9.34c-23.58-1.54-43.11-6.47-62.32-20.43c-2.68-1.94-21.01-14.58-10.36-15.61c6.6,1.71,13.46,1.89,20.23,1.55
	c16.37-0.84,26.94-3.74,44.48-2.87c2.34,0.12,9.84,1.06,10.85-1.49c-35.21-15.3-73.99-15.45-111.26-21.84
	c-85.16-14.59-167.89-62.25-211.28-138.36c-7.34-12.87-19.74-39.26-21.28-53.57c-0.31-2.89,1.64-2.83,3.48-2.01
	c1.17,0.52,13.16,17.16,15.87,20.1c32.8,35.68,85.21,64.93,130.94,80.58c3.06,1.05,7.71,3.59,10.81,2.14
	c-42.13-25.52-80.72-55.89-109.08-96.68c-33.52-48.21-40.53-90.99-30.03-148.92c3.16-17.41,10.08-34.1,11.06-51.54l5.74,0.02
	c-17.45,125.91,78.34,237.88,188.49,283.44c0.66-3-1.56-3.26-3.27-4.63c-6.73-5.36-15.38-9.74-22.46-14.95
	c-116.49-85.74-149.25-212.99-60.33-334.84c27.88-38.2,67.85-75.23,111.96-93.06c1.07,1.02-5.3,8.74-6.45,10.08
	c-8.45,9.96-19.96,18.9-28.82,28.74c-55.11,61.18-82.76,141.96-69.75,224.48l10.42-39.2c11.01-26.87,26.81-52.74,44.21-75.16
	c4.76-6.13,19.9-26.22,25.15-29.59c1.77-1.14,2.85-1.79,5.09-1.37c-8.23,27.22-20.17,53.2-28.05,80.57
	c-13.81,48-18.52,92.28-4.32,141c2.85,9.78,8.02,18.88,9.34,28.77c-2.08,2.34-15.52-13.18-17.22-15.14
	c-9.93-11.48-17.8-24.62-25.93-37.39c-2.72-2-1.13,2.65-0.75,3.64c8.6,22.32,38.74,55.55,57.62,70.44
	c1.72,1.36,12.47,9.87,13.62,8.67c-13.64-27.91-25.26-68.33-16.22-98.99c0.38-1.28,0.02-4.48,2.54-3.15
	c1.64,0.87,10.13,29.71,12.46,35.03c9.51,21.74,24.4,42.86,42.28,58.44c12.45,10.85,33.3,20.49,43.14,31.68
	c10.3,11.7,16.87,32.63,26.87,46.51c4.43,6.15,21.2,21.67,22.54,24.95c0.73,1.8,0.93,4.05-1.86,3.32l-55.47-15.06
	c6.14,4.85,11.78,10.42,18.25,14.85c34.21,23.42,74.1,23.72,106.95,54.2c41.33,38.35,46.44,118.31,21.49,166.58
	c-0.87,1.69-3.32,0.29-2.8,2.5c4.89-0.6,8.45-7.23,11.24-11.04c29.71-40.72,35.8-94.97,13.04-140.57
	c-2.03-4.06-12.35-18.43-12.54-20.55c-0.13-1.44,4.15-7.3,5.17-10.19c12.87-36.58-7.83-64.77-40.4-79.76
	c-2.57-1.19-9.25-2.3-9.61-2.64c-3.72-3.53,12-4.57,11.51-7.17c-18.8,2.49-36.4,2.63-45.91,20.96c-0.56,1.08-0.47,4.52-2.98,2.04
	c-2.67-2.62-3.33-18.16-2.95-22.36c0.95-10.67,8.75-22.92,17.73-28.44c8.02-4.93,10.4,0.74,18.29,1.87
	c-2.04-10.35-11.76-8.47-7.51-21.2c6.53-19.6,51.38-45.4,70.13-53.58l-12.24,15.09c-0.31,1.01,1.12,0.91,2.16,0.73
	c6.57-1.15,18.39-7.4,26.3-9.68c55.14-15.89,99.48-15.35,132.41-71.91c1.67-2.86,8.41-19.06,9.63-19.12
	c2.64-0.12,1.59,4.37,1.49,5.75c-1.95,27.63-19,57.58-39.6,75.53c-15.45,13.46-33.13,20.95-51.81,28.76
	c26.55,5.4,55.87,2.42,79.87-10.77c-0.39,3.03-4.43,5.87-6.64,7.74c-12.17,10.3-29.58,18.69-44.99,22.63
	c-4.25,1.09-18.81,2.11-19.6,2.7c-2.94,2.17,1.07,2.51,2.05,3c7.2,3.64,35.71,17.14,41.83,17.14h20.86
	c-20.02,18.1-50.27,11.99-74.81,8.65l25.91,17.95c14.86,14.39,28.16,33.68,25.86,55.42c-5.9-5.09-8.61-12.39-14.34-18.02
	c-5.62-5.51-15.55-12.74-23.05-15.06c-0.54,2.2,2.02,1.08,2.89,2.42c16.38,25.42,27,64.54,25.88,94.7
	c-0.06,1.74,1.08,5.35-1.42,5.01c-10.27-25.92-22.95-54.33-42.44-74.83c-1.16-1.22-6.45-7.27-7.93-5.73
	c7.84,16.06,16.53,31.69,22.65,48.56c27.15,74.85,17.31,150.89-24.94,217.5c-29.8,46.99-63.94,79.38-45.93,141.14
	c1.39,4.79,12.59,26.91,10.8,28.76c-17.08-3.82-27.56-23.14-34.77-37.87l-6.93-21.1l-1.47,55.37c-2.34,20.06-6.8,38.59-17.54,55.85
	c-2.1,3.38-3.52,7.77-8.34,6.75c6.56-23.58,4.88-47.14-0.46-70.76l-11.04-47.21c-5.42,60.89-19.86,125.61-74.95,160.31
	c-5.07,3.19-17.64,11.7-10.72,0.79c26.38-41.57,38.7-66.72,36.73-118.68c-0.07-1.74,1.08-5.35-1.42-5.01
	c-6.83,21.79-17.31,43.22-28.04,63.33c-24.77,46.43-61.17,89.24-69.83,142.41c-1.98,0.38-3.46-0.49-4.05-2.41
	c-1.14-3.76-2.9-18.16-3.19-22.71c-0.33-5.12-0.33-12.2,0.08-17.3c0.76-9.47,5.01-18.71,5-28.09c-7.36,4.86-13.23,11.82-20.17,17.24
	c-55.11,43.08-126.42,63.66-196.36,56.88c10.28-4.54,21.69-6.05,32.39-9.33c82.06-25.17,150.12-79.46,199.24-148.97l-2.12-2.12
	c-28.96,26.32-60.6,50.03-94.74,69.3c-81.53,46.02-203.93,90.26-296.7,60.22c-1.89-0.61-4.48-0.02-5-2.9
	c26.4-1.31,52.51-4.96,78.01-11.93l15.51-5.33c-22.51-2.82-44.68-8.11-67.14-11.29c-88.97-12.56-178.17-9.64-247.99,53.7
	c-13.33,12.09-21.05,25.43-32.49,38.01c-1.45,1.6-2.12,3.61-4.89,3.01c16.28-73.5,80.98-125.48,152.5-141.74
	c46.61-10.59,94.07-6.13,141.03-0.72c-3.85-4.01-10.51-7.11-15.52-9.64c-52.52-26.55-114.13-37.32-170.07-14.06
	c-3.9,1.62-24.38,13.6-25.92,12.2c12.26-25.83,37.93-45.62,64.36-55.77c50.55-19.42,102.78-9.29,151,10.92
	c75.88,31.81,115.36,60.46,203.66,34.38c1.95-0.58,22.12-6.55,19.83-8.21c-29.19,3.32-57.39,4.5-86.6-0.47
	c-79.2-13.46-132.23-67.06-204.07-86.59c-7.58-2.06-17.18-0.69-21.57-6.47c9.57-1.27,19.84-3.79,29.44-4.39
	c85.97-5.37,157.71,47.41,241.8,56.17c91.17,9.49,188.67-30.72,255.41-91.34c8.68-7.88,30.17-28.76,35.2-38.19
	c0.97-1.81,2.17-4.82-1.38-4.27c-55.79,60.08-136.41,99.73-220.18,89.19c-1.96-0.25-4.59-1.02-2.15-2.86
	c67.61-10.94,131.52-48.54,169.76-105.78c-12.72,2.17-27.91,3.51-40.82,2.02c-2.56-0.3-17.29-4.65-17.99-5.76
	c-0.33-0.54-0.31-3.96-0.16-4.14c0.55-0.66,13.72-3.35,16.58-4.31c34.68-11.63,66.09-22.2,86.18-54.83
	c3.92-6.36,12.35-22.35,12.35-29.38V1102.67z M1495.71,840.81c-6.24-3.04-49.01,17.87-41.72,24.44c8.24-0.35,12.96,2.93,20.64-1.65
	c6.81-4.06,6.57-9.66,10.38-14.07C1487.81,846.29,1493.81,845.26,1495.71,840.81z M1554.7,931.45c-2.02-1.03-3.84,0.91-2.86,1.41
	C1553.85,933.9,1555.67,931.95,1554.7,931.45z M1556.14,1065.26v26.62c0,5.11-4.61,20.87-6.16,26.93
	c-1.78,6.93-4.62,13.74-6.75,20.57c4.57-1.66,7.96-10.15,9.84-14.61c7.83-18.61,8.84-35.74,5.6-55.56
	C1558.44,1067.89,1558.05,1064.89,1556.14,1065.26z M939.58,1448v1.44C940.52,1448.96,940.52,1448.48,939.58,1448z M1287.79,1481.09
	v1.44C1288.73,1482.05,1288.73,1481.57,1287.79,1481.09z"/>
<path class="st0" d="M1626.65,1030c0.5-4.25,6.32-21.27,10.06-23.04c2.91-1.38,12.62-1.64,17.29-2.85
	c21.14-5.48,35.92-17.42,51.78-31.68c-0.99-1.97-3.87,0.02-5.3,0.46c-15.57,4.83-30.8,14.67-47.93,14.65
	c-0.05-1.12-0.14-2.25,0.23-3.35c0.49-1.47,15.58-22.35,17.87-25.3c17.09-21.95,31.5-27.09,52.85-42.12
	c43.05-30.31,73.08-79.21,90.22-128.48c7.07-20.31,13.91-42.37,12.93-64.07c5.38-1.98,5.73,6.3,6.77,11.22
	c8.15,38.65,5.62,80.91-6.77,118.27c3,0.67,3.27-1.58,4.63-3.27c21.23-26.55,21.94-50.98,29.11-81.69
	c13.35-57.19,26.92-97.6,16.2-158.5c-4.03-22.91-13.22-44.22-21.16-65.88c5.25-5.03,19.88,18.08,22.17,21.7
	c34.65,54.69,52.87,134.85,40.7,198.74c-11.62,61.04-54.71,109.34-97.39,151.52c6-1.04,11.83-5.5,17.12-8.77
	c67.49-41.71,91.42-75.72,117.34-150.3c1.82-5.23,9.22-36.47,10.92-13.68c1.66,22.2-2.39,59.82-7.67,81.67
	c-14.86,61.41-49.14,100.2-101.87,132.66c-21.93,13.5-47.95,26.44-73.25,31.07c-0.29,2.29,3.03,2.1,4.47,2.06
	c11.24-0.29,27.61-4.36,38.97-6.84c42.06-9.19,77.23-21.24,110.54-49.17c2.72-2.28,8.65-9.87,10.79-10.8
	c4.6-2.01-0.39,7.87-0.95,9.13c-15.41,34.79-52.31,75.16-86.59,91.83c-32.92,16.02-76.76,24.69-113.2,24.22l26.98,12.57
	c10.93,3.79,22.28,7.01,34,5.94c3.5-0.32,15.16-4.3,15.96-4.14c0.88,0.18,2.47,2.3,2.19,3.58c-0.67,3.07-19.24,16.32-23.13,18.61
	c-28.28,16.69-59.26,18.21-90.53,9.48c14.21,29.76-5.1,63.47-35.96,70.48c3.7-13.86,5.64-22.55,1.48-36.75
	c-2.05-7-3.1,1.49-4.06,3.2c-6.12,10.95-18.39,27.78-31.96,27.8l-0.72-18.7c-15.95,25.96-40.52,48.47-71.22,54.66
	c-0.56-2.24,0.59-3.38,1.36-5.1c6-13.4,18.6-27.61,25.55-42.07c18.81-39.11,16.89-75.03,9.06-116.85
	c12.08,2.22,16.92,18.29,20.15,28.76c3.8-0.27-0.02-5.64-0.02-6.46C1626.65,1046.93,1625.8,1037.14,1626.65,1030z"/>
<path class="st0" d="M788.5,1029.28c21.8,2.95,48.12,23.37,49.7,46.7c1.41,20.79-9.05,30.11-24.52,41.05
	c54.85,13.62,58.93,78.08,8.16,102.43c-7.27,3.49-27.24,9.82-34.79,9.82H636.7l14.36-19.45c0.67-32.64,1.07-65.21,1.41-97.87
	c0.18-17.51,4.65-54.28-3.95-69.31c-2.55-4.46-8.17-7.81-8.94-13.37H788.5z M718.72,1106.98h43.89c7.54,0,18.49-11.6,19.33-19.58
	c0.71-6.69-5.4-20.71-12.14-20.71h-61.15v126.62c9.46,1.76,19.41-2.47,28.22-2.73c2.86-0.08,5.53,1.46,8.42,1.36
	c16.38-0.59,49.15,3.17,52.44-19.62c5.15-35.65-29.72-28.2-51.21-39.17C743.38,1131.55,714.35,1110.7,718.72,1106.98z"/>
<path class="st0" d="M192.09,1029.28c-3.63,10.18-7.68,13.49-3.99,24.86c10.95,33.67,40.34,82.18,57.01,115.64
	c1.83,3.67,1.94,10.69,6.69,9.18c8.25-17.35,17.78-34.13,26.42-51.31c8.95-17.82,32.74-60.44,36.66-77.07
	c2.3-9.75-3.47-12.61-4.81-21.29h74.82c-8.93,9.24-16.79,18.02-23.28,29.24c-39.53,68.34-70.69,146.21-109.79,215.4
	c-3.29,5.83-8.71,19.28-13.98,8.16L124.74,1058.5l-11.83-15.51L100,1029.28H192.09z"/>
<path class="st0" d="M1240.31,1029.28l20.89,42.44c0.51,3.05-1.15,2.37-3.33,1.89c-4.15-0.92-15.14-6.92-17.56-6.92h-85.61v35.25
	c0,0.15,2.01,2.16,2.16,2.16h104.32c-6.71,15.22-23.3,23.57-33.81,35.97h-72.66v50.36h101.44c1.33,0,18.31-7.58,21.31-8.91
	c1.16-0.51,3-2.52,3.89-0.43c-0.89,7.84-18.87,48.18-25.2,48.18h-173.38c1.54-5.88,8.79-9.96,11.17-15.45
	c6.19-14.27,3.63-78.13,3.28-97.57c-0.07-4.1-1.48-7.6-1.57-11.38c-0.37-16.62,2.33-40.75-0.03-56.08
	c-1.41-9.13-10.22-11.78-12.86-19.52H1240.31z"/>
<path class="st0" d="M628.07,1229.29h-92.09c2.37-7.03,9.15-13.45,6.55-21.61c-21.05-36.95-35.84-83.33-58.06-118.97
	c-0.56-0.9-2.15-3.99-3.14-3.31c-12.02,26.4-27.06,51.56-39.63,77.65c-4.93,10.23-19.5,38.54-19.5,48.24
	c0,6.38,4.31,11.67,4.44,17.99h-73.38c1.56-4.39,6.34-9.25,9.5-12.8c30.51-34.27,53.17-93.13,74.64-135.43
	c5.67-11.17,16.67-23.49,15.02-36.52c-0.83-6.54-5.52-9.48-7.08-15.24h72.66l82.49,167.87c3.95,5.95,9.08,12.54,13.89,17.76
	C618.88,1219.8,625.92,1223.63,628.07,1229.29z"/>
<path class="st0" d="M957.57,1029.28c-0.67,4.51-5.04,6.54-7.47,10.51c-1.86,3.04-3.64,6.72-4.07,10.31
	c-2.3,18.87,0.54,44.89,0.09,64.84c-0.34,15.41-3.05,33.53-3.05,48.84c0,3.93,1.5,22.51,2.61,24.86c1.15,2.45,2.52,3.42,5.33,3.3
	c29.55-2.33,63.11,2.85,92.15-0.1c11.84-1.2,20.81-9.4,32.39-10.05c-5.97,16.43-12.08,33.11-22.3,47.47H872.68
	c3.93-7.58,12.06-12.35,14.31-20.94c0.76-30.22,0.96-60.4,1.46-90.63c0.3-18.4,5.35-62.6-4.5-77.4c-2.63-3.95-7.71-6.2-8.39-11.03
	H957.57z"/>
<path class="st0" d="M1422.12,636.67c0.85,0.52,2.88,12.71,3.87,15.56c3.12,9.03,8.69,18.12,16.57,23.72
	c3.89,2.77,15.79,5.51,14.33,10.16c-0.24,0.76-11.32,5.6-14.03,7.59c-7.16,5.25-12.37,13.67-15.47,21.94
	c-1.72,4.6-4.21,22.2-5.08,23c-5.13,4.76-5.83-10.84-6.75-14.11c-2.65-9.39-7.48-21.73-14.79-28.38
	c-6.47-5.88-16.38-5.9-18.73-13.62c21.33-3.64,34.39-25.62,34.53-46.07C1418.24,636.71,1420.87,635.91,1422.12,636.67z"/>
<path class="st0" d="M1630.94,1260.94c0.65,0.53,2.07,13.45,2.98,16.47c1.89,6.26,5.49,12.61,10.72,16.62
	c3.94,3.02,15.96,5.69,8.43,11.32c-9.95,7.43-14.09,8.05-18.83,21.45c-1.15,3.24-2.68,15.6-3.28,16.16
	c-4.46,4.18-5.42-8.08-6.48-11.51c-2.35-7.64-5.39-16.06-11.72-21.37c-5.83-4.89-14.79-3.6-13.49-11c0.17-0.96,4.86-1.04,6.82-1.86
	c15.11-6.34,19.19-21.13,20.57-36.3C1627.83,1261.13,1630.54,1260.62,1630.94,1260.94z"/>
<path class="st0" d="M1131.65,1268.14c1.04,0.96,3.87,12.46,6.55,15.77c3.24,3.99,7.91,4.03,10.68,6.59
	c4.46,4.12-1.83,3.81-4.61,6.39c-1.48,1.38-7.16,6.76-7.86,7.63c-4.07,5-1.46,17.23-9.05,15.43c0.33-5.53-1.54-11.69-4.56-16.32
	c-2.62-4.02-13.23-9.76-12.71-11.73c0.25-0.95,8.87-4.78,11-7c4.1-4.27,4.89-10.41,7.37-14.93
	C1129.18,1268.66,1129.48,1266.15,1131.65,1268.14z"/>
</svg>

